<svg width="157" height="157" viewBox="0 0 157 157" fill="none" xmlns="http://www.w3.org/2000/svg">
<g clip-path="url(#clip0_12_8767)">
<path d="M134.559 124.784L130.896 121.057L128.75 123.151L129.483 126.05L134.559 124.784ZM141.3 151.767L140.034 156.843C140.91 157.061 141.827 157.049 142.697 156.808C143.567 156.566 144.36 156.104 144.999 155.465C145.637 154.827 146.099 154.034 146.341 153.164C146.582 152.294 146.594 151.376 146.376 150.5L141.3 151.767ZM99.4333 141.3L95.7281 137.595L89.1969 144.136L98.1669 146.376L99.4333 141.3ZM99.695 141.038L103.39 144.744C104.153 143.983 104.664 143.005 104.85 141.943C105.037 140.881 104.892 139.788 104.433 138.812C103.975 137.836 103.227 137.026 102.291 136.491C101.355 135.957 100.276 135.724 99.2031 135.826L99.695 141.038ZM73.2667 0V26.1667H83.7333V0H73.2667ZM94.2 20.9333H62.8V31.4H94.2V20.9333ZM157 83.7333C157 67.0777 150.384 51.1043 138.606 39.327C126.829 27.5497 110.856 20.9333 94.2 20.9333V31.4C101.073 31.4 107.878 32.7536 114.227 35.3836C120.576 38.0136 126.346 41.8685 131.205 46.7281C136.065 51.5877 139.92 57.3569 142.55 63.7062C145.18 70.0556 146.533 76.8608 146.533 83.7333H157ZM138.223 128.52C144.178 122.68 148.907 115.709 152.132 108.016C155.356 100.324 157.011 92.0745 157 83.7333H146.533C146.545 90.6852 145.167 97.5587 142.479 103.97C139.792 110.382 135.861 116.191 130.896 121.057L138.223 128.52ZM146.387 150.5L139.625 123.507L129.473 126.04L136.213 153.023L146.387 150.5ZM98.1669 146.376L140.034 156.843L142.566 146.69L100.7 136.224L98.1669 146.376ZM95.9898 137.344L95.7281 137.595L103.139 144.995L103.39 144.744L95.9898 137.344ZM94.2 146.533C96.2201 146.533 98.2192 146.429 100.187 146.251L99.2031 135.826C97.5401 135.985 95.8706 136.065 94.2 136.067V146.533ZM62.8 146.533H94.2V136.067H62.8V146.533ZM0 83.7333C0 100.389 6.61641 116.362 18.3937 128.14C30.171 139.917 46.1444 146.533 62.8 146.533V136.067C55.9275 136.067 49.1223 134.713 42.7729 132.083C36.4235 129.453 30.6543 125.598 25.7947 120.739C15.9803 110.924 10.4667 97.613 10.4667 83.7333H0ZM62.8 20.9333C46.1444 20.9333 30.171 27.5497 18.3937 39.327C6.61641 51.1043 0 67.0777 0 83.7333H10.4667C10.4667 69.8537 15.9803 56.5425 25.7947 46.7281C35.6091 36.9137 48.9203 31.4 62.8 31.4V20.9333ZM78.5 83.7333C74.3361 83.7333 70.3427 82.0792 67.3984 79.1349C64.4541 76.1906 62.8 72.1972 62.8 68.0333H52.3333C52.3333 74.9732 55.0902 81.6288 59.9974 86.536C64.9046 91.4432 71.5602 94.2 78.5 94.2V83.7333ZM94.2 68.0333C94.2 72.1972 92.5459 76.1906 89.6016 79.1349C86.6573 82.0792 82.6639 83.7333 78.5 83.7333V94.2C85.4398 94.2 92.0954 91.4432 97.0026 86.536C101.91 81.6288 104.667 74.9732 104.667 68.0333H94.2ZM78.5 52.3333C82.6639 52.3333 86.6573 53.9874 89.6016 56.9318C92.5459 59.8761 94.2 63.8694 94.2 68.0333H104.667C104.667 61.0935 101.91 54.4379 97.0026 49.5307C92.0954 44.6235 85.4398 41.8667 78.5 41.8667V52.3333ZM78.5 41.8667C71.5602 41.8667 64.9046 44.6235 59.9974 49.5307C55.0902 54.4379 52.3333 61.0935 52.3333 68.0333H62.8C62.8 63.8694 64.4541 59.8761 67.3984 56.9318C70.3427 53.9874 74.3361 52.3333 78.5 52.3333V41.8667ZM78.5 125.6C89.6365 125.6 99.8729 121.727 107.943 115.269L101.391 107.105C95.1106 112.129 87.1664 115.133 78.5 115.133V125.6ZM49.0573 115.269C57.1166 121.727 67.3739 125.6 78.5 125.6V115.133C70.1771 115.149 62.0995 112.316 55.6094 107.105L49.0573 115.269Z" fill="#284243"/>
</g>
<defs>
<clipPath id="clip0_12_8767">
<rect width="157" height="157" fill="white"/>
</clipPath>
</defs>
</svg>
