<svg width="50" height="50" viewBox="0 0 50 50" fill="none" xmlns="http://www.w3.org/2000/svg">
<path d="M20.8332 22.9167V16.6667C20.8332 16.1142 20.6137 15.5843 20.223 15.1936C19.8323 14.8029 19.3024 14.5834 18.7498 14.5834H12.4998C11.9473 14.5834 11.4174 14.8029 11.0267 15.1936C10.636 15.5843 10.4165 16.1142 10.4165 16.6667V22.9167C10.4165 23.4692 10.636 23.9991 11.0267 24.3898C11.4174 24.7805 11.9473 25 12.4998 25H18.7498C19.3024 25 19.8323 24.7805 20.223 24.3898C20.6137 23.9991 20.8332 23.4692 20.8332 22.9167ZM20.8332 22.9167V27.0834C20.8332 29.2935 19.9552 31.4131 18.3924 32.9759C16.8296 34.5387 14.71 35.4167 12.4998 35.4167H10.4165M39.5832 22.9167V16.6667C39.5832 16.1142 39.3637 15.5843 38.973 15.1936C38.5823 14.8029 38.0524 14.5834 37.4998 14.5834H31.2498C30.6973 14.5834 30.1674 14.8029 29.7767 15.1936C29.386 15.5843 29.1665 16.1142 29.1665 16.6667V22.9167C29.1665 23.4692 29.386 23.9991 29.7767 24.3898C30.1674 24.7805 30.6973 25 31.2498 25H37.4998C38.0524 25 38.5823 24.7805 38.973 24.3898C39.3637 23.9991 39.5832 23.4692 39.5832 22.9167ZM39.5832 22.9167V27.0834C39.5832 29.2935 38.7052 31.4131 37.1424 32.9759C35.5796 34.5387 33.46 35.4167 31.2498 35.4167H29.1665" stroke="black" stroke-width="2" stroke-linecap="round" stroke-linejoin="round"/>
</svg>
